<?xml version="1.0" encoding="UTF-8"?> <!-- Generator: Adobe Illustrator 23.1.1, SVG Export Plug-In . SVG Version: 6.00 Build 0) --> <svg xmlns="http://www.w3.org/2000/svg" xmlns:xlink="http://www.w3.org/1999/xlink" version="1.1" id="Layer_1" x="0px" y="0px" viewBox="0 0 300 150" style="enable-background:new 0 0 300 150;" xml:space="preserve"> <style type="text/css"> .st0{fill:#9B1B3C;} </style> <g> <g> <path class="st0" d="M63.41,14.55c-2.41,1.71-2.15,5.84-3.8,8.65c-5.75,9.79-22.95,21.79-34.2,16.33 c-5.11-2.48-5.05-11.16-12.24-9.61c2.02,7.39,1.27,15.27,1.27,27.38c0,7.52-1.81,22.35,3.38,21.14c2.09-1.88,0.91-5.85,0.84-9.13 c-0.22-10.49-0.03-23.66,0.42-30.74c13.02,12.76,32.35-1.11,39.27-11.53c-3.71,22.92-7.04,53.44-5.91,81.66 c0.13,3.31,0.26,6.53,0.42,10.57c0.26,6.37-0.63,15.78,4.22,16.33c1.65-7.66-0.07-16.38-0.42-25.46 c-1.09-28.1,1.27-56.21,5.49-77.82c1.21-6.17,4.37-11.69,3.8-17.29C65.44,14.48,64.45,14.49,63.41,14.55z"></path> <path class="st0" d="M150.1,64.03c-1.45-0.62-5.75-2.18-6.24,0.48c2.47,8.42,10.35,11.42,13.45,19.21 c-6.24-0.8-10.78-3.31-15.37-5.76c-1.44-1.92-1.67-5.06-5.29-4.8c-3.59,4.21-1.43,14.2-1.44,18.73c1.96,0.83,3.7,1.07,5.28,0 c1.42-3.27-1.71-6.04,0.48-9.13c6.32,2.47,14.66,7.55,23.06,4.8C162.62,76.49,151.35,75.26,150.1,64.03z"></path> <path class="st0" d="M100.63,83.72c-2.65-4.08-5.98-7.47-8.17-12.01c0.59-1.81,2.09-2.71,1.92-5.28c-3.27-4.05-4.53,3.31-9.13,2.4 c-2.09,6.72-3.13,14.48-10.09,16.33c1.1,3.4,0.26,3.86,0,7.69c0.64,0.48,1.79,0.45,1.92,1.44c3.84,0.16,3.44-3.93,5.76-5.29 c4.25-0.02,9.85,0.52,14.41-0.48c5.1,2.61,6.81,11.09,14.41,9.61c0.17-5.62-6.03-4.86-6.72-9.61c6.48-2.17,16.92-0.37,21.62-4.32 C120.68,82.51,111.34,84.3,100.63,83.72z M85.25,84.2c0.4-3.12,2.86-4.18,3.84-6.73c2.86,1.15,3.82,4.19,5.28,6.73 C91.37,84.12,88.53,85.31,85.25,84.2z"></path> <path class="st0" d="M287.45,71.51c-3.68-2.23-5.86,1.52-9.41,2.42c-18.64,4.73-54.7,11.69-49.1,10.87 c16.15-2.36,35.77-3.57,51.36-7.72C283.08,76.34,288.19,75.37,287.45,71.51z"></path> <path class="st0" d="M14.21,93.38c1.5,0.58,2.38,1.78,4.8,1.44c0.86-1.06,1.89-1.95,1.44-4.32 C17.81,89.74,13.05,88.07,14.21,93.38z"></path> <path class="st0" d="M198.9,84.47c-2.65-4.08-5.98-7.47-8.17-12.01c0.59-1.81,2.09-2.71,1.92-5.28c-3.27-4.05-4.53,3.31-9.13,2.4 c-2.09,6.72-3.13,14.48-10.09,16.33c1.1,3.4,0.25,3.86,0,7.69c0.64,0.48,1.79,0.45,1.92,1.44c3.84,0.16,3.44-3.93,5.76-5.29 c4.25-0.02,9.85,0.52,14.41-0.48c5.1,2.61,6.81,11.09,14.41,9.61c0.17-5.62-6.03-4.86-6.72-9.61c6.48-2.17,16.92-0.37,21.62-4.32 C218.96,83.25,209.62,85.05,198.9,84.47z M183.53,84.95c0.4-3.12,2.86-4.18,3.84-6.73c2.86,1.15,3.82,4.19,5.28,6.73 C189.65,84.87,186.8,86.06,183.53,84.95z"></path> </g> </g> </svg> 